<svg width="88" height="88" viewBox="0 0 88 88" fill="none" xmlns="http://www.w3.org/2000/svg">
<g filter="url(#filter0_d_16_9)">
<rect x="4" width="80" height="80" rx="10" fill="#240046"/>
<rect x="4.5" y="0.5" width="79" height="79" rx="9.5" stroke="#39036D" stroke-opacity="0.6"/>
</g>
<path d="M44.5 40H44.5213M53 27.5V23.3334C53 22.2283 52.5522 21.1685 51.7552 20.3871C50.9582 19.6057 49.8772 19.1667 48.75 19.1667H40.25C39.1228 19.1667 38.0418 19.6057 37.2448 20.3871C36.4478 21.1685 36 22.2283 36 23.3334V27.5M65.75 42.0834C59.4447 46.1646 52.0555 48.3402 44.5 48.3402C36.9445 48.3402 29.5553 46.1646 23.25 42.0834M27.5 27.5H61.5C63.8472 27.5 65.75 29.3655 65.75 31.6667V52.5C65.75 54.8012 63.8472 56.6667 61.5 56.6667H27.5C25.1528 56.6667 23.25 54.8012 23.25 52.5V31.6667C23.25 29.3655 25.1528 27.5 27.5 27.5Z" stroke="white" stroke-width="4" stroke-linecap="round" stroke-linejoin="round"/>
<defs>
<filter id="filter0_d_16_9" x="0" y="0" width="88" height="88" filterUnits="userSpaceOnUse" color-interpolation-filters="sRGB">
<feFlood flood-opacity="0" result="BackgroundImageFix"/>
<feColorMatrix in="SourceAlpha" type="matrix" values="0 0 0 0 0 0 0 0 0 0 0 0 0 0 0 0 0 0 127 0" result="hardAlpha"/>
<feOffset dy="4"/>
<feGaussianBlur stdDeviation="2"/>
<feComposite in2="hardAlpha" operator="out"/>
<feColorMatrix type="matrix" values="0 0 0 0 0 0 0 0 0 0 0 0 0 0 0 0 0 0 0.25 0"/>
<feBlend mode="normal" in2="BackgroundImageFix" result="effect1_dropShadow_16_9"/>
<feBlend mode="normal" in="SourceGraphic" in2="effect1_dropShadow_16_9" result="shape"/>
</filter>
</defs>
</svg>
